<svg width="157" height="30" viewBox="0 0 157 30" fill="none" xmlns="http://www.w3.org/2000/svg">
<path d="M40.9168 0.00744629H20.496V8.7795C20.5043 11.8378 22.9901 14.3127 26.0537 14.3126H36.7335C40.6046 14.4183 43.6861 17.5844 43.6806 21.4502V29.7574C51.0934 28.5354 56.7638 22.0875 56.7638 14.8899C56.7638 6.83015 49.6289 0.00744629 40.9168 0.00744629Z" fill="#E61414"/>
<path d="M32.4675 15.3623H21.8253C19.9887 15.3703 18.2243 14.6496 16.92 13.3589C15.6158 12.0681 14.8786 10.313 14.8706 8.47965V0C6.60917 0.472341 0 7.10011 0 14.86C0 22.9273 7.12739 29.75 15.847 29.75H38.0252V20.918C38.017 17.856 35.5348 15.3747 32.4675 15.3623Z" fill="#00486D"/>
<path d="M74.7609 23.1638C77.1292 23.1638 78.8336 21.7473 78.8336 19.3789V17.741H76.3103V19.224C76.3103 20.1093 75.7348 20.707 74.8052 20.707C73.8091 20.707 73.2337 20.1315 73.2337 19.0469V10.9459C73.2337 9.99411 73.6985 9.33009 74.783 9.33009C75.7348 9.33009 76.3103 9.9277 76.3103 10.8573V12.3403H78.8336V10.5917C78.8336 8.28979 77.1071 6.91748 74.783 6.91748C72.304 6.91748 70.4005 8.35619 70.4005 10.8795V19.2019C70.4005 21.8579 72.2155 23.1638 74.7609 23.1638Z" fill="#00466E"/>
<path d="M82.8177 23.1638C83.4817 23.1638 84.5884 22.8097 85.0311 21.7473H85.0975C85.1418 22.3892 85.2082 22.854 85.2082 22.9425H87.5986C87.5986 22.6548 87.488 21.1718 87.488 20.22V14.0446C87.488 12.0747 86.1378 10.9016 84.0351 10.9016C81.9102 10.9016 80.4715 12.0968 80.4715 13.9118V14.9521H82.8398V13.9561C82.8398 13.4028 83.1276 12.9822 83.858 12.9822C84.5663 12.9822 84.8983 13.3806 84.8983 13.9561V15.749H84.2121C82.0651 15.7932 80.228 17.1213 80.228 19.6003C80.228 22.1014 81.4011 23.1638 82.8177 23.1638ZM83.7916 21.1275C83.2161 21.1275 82.8398 20.5963 82.8398 19.2904C82.8398 17.9402 83.4817 17.3426 84.2785 17.3426H84.8983V19.7773C84.8983 20.5299 84.3671 21.1275 83.7916 21.1275Z" fill="#00466E"/>
<path d="M89.4579 26.506H92.0697V22.1456H92.0918C92.5566 22.8318 93.3535 23.1638 94.0839 23.1638C95.8546 23.1638 96.8506 21.9243 96.8506 20.3749V13.7347C96.8506 12.1853 96.1202 10.9237 94.3274 10.9237C93.5305 10.9237 92.5345 11.4107 92.0476 12.2739H92.0033V11.1672H89.4579V26.506ZM93.2428 21.0832C92.6009 21.0832 92.0697 20.5741 92.0697 19.7109V14.5537C92.0697 13.5577 92.5788 13.0264 93.2428 13.0264C93.9068 13.0264 94.261 13.4691 94.261 14.1553V19.9322C94.261 20.7069 93.8404 21.0832 93.2428 21.0832Z" fill="#00466E"/>
<path d="M98.7098 22.9425H101.322V11.1672H98.7098V22.9425ZM98.7098 9.61786H101.322V6.76257H98.7098V9.61786Z" fill="#00466E"/>
<path d="M106.435 23.0974C106.988 23.0974 107.652 23.0089 108.183 22.8097V20.7291C107.94 20.7955 107.563 20.8397 107.231 20.8397C106.745 20.8397 106.567 20.5963 106.567 20.1093V13.2921H108.25V11.2557H106.567V8.57751H103.978V11.2557H102.893V13.2921H103.978V20.884C103.978 22.4555 105.084 23.0974 106.435 23.0974Z" fill="#00466E"/>
<path d="M113.341 23.186C114.58 23.186 115.62 22.9204 116.528 22.4777L116.041 20.5963C115.487 20.7955 114.646 21.0611 113.85 21.0611C112.787 21.0611 112.19 20.4856 112.19 19.3789V17.9624H116.661V14.3324C116.661 12.2739 115.421 10.9016 113.274 10.9016C111.216 10.9016 109.6 12.2297 109.6 14.5759V19.6888C109.6 22.035 111.149 23.186 113.341 23.186ZM112.19 16.1031V14.2217C112.19 13.5798 112.522 12.9822 113.274 12.9822C114.049 12.9822 114.337 13.5577 114.337 14.1996V16.1031H112.19Z" fill="#00466E"/>
<path d="M121.862 23.1638C123.965 23.1638 125.315 22.0793 125.315 20.1315V19.0691H122.991V19.9987C122.991 20.5078 122.747 21.0833 121.951 21.0833C121.176 21.0833 120.866 20.5078 120.866 19.7995V14.266C120.866 13.5798 121.198 13.0265 121.951 13.0265C122.681 13.0265 122.991 13.5134 122.991 14.0889V15.0185H125.315V13.9118C125.315 12.1854 124.009 10.9016 121.906 10.9016C119.914 10.9016 118.254 12.1411 118.254 14.4431V19.7331C118.254 21.9907 119.782 23.1638 121.862 23.1638Z" fill="#00466E"/>
<path d="M130.295 22.9426H133.084V17.0328H134.633C137.356 17.0328 138.551 15.085 138.551 11.9198C138.551 8.9096 137.334 7.16101 134.744 7.16101H130.295V22.9426ZM133.084 14.7308V9.48508H134.279C135.386 9.48508 135.829 10.3704 135.829 11.9862C135.829 13.8233 135.297 14.7308 134.235 14.7308H133.084Z" fill="#00466E"/>
<path d="M142.535 23.1638C143.199 23.1638 144.306 22.8097 144.749 21.7473H144.815C144.859 22.3892 144.926 22.854 144.926 22.9425H147.316C147.316 22.6548 147.206 21.1718 147.206 20.22V14.0446C147.206 12.0747 145.855 10.9016 143.753 10.9016C141.628 10.9016 140.189 12.0968 140.189 13.9118V14.9521H142.557V13.9561C142.557 13.4028 142.845 12.9822 143.576 12.9822C144.284 12.9822 144.616 13.3806 144.616 13.9561V15.749H143.93C141.783 15.7932 139.946 17.1213 139.946 19.6003C139.946 22.1014 141.119 23.1638 142.535 23.1638ZM143.509 21.1275C142.934 21.1275 142.557 20.5963 142.557 19.2904C142.557 17.9402 143.199 17.3426 143.996 17.3426H144.616V19.7773C144.616 20.5299 144.085 21.1275 143.509 21.1275Z" fill="#00466E"/>
<path d="M150.437 26.7274C151.986 26.7274 152.938 25.7535 153.447 23.6951L156.28 11.1672H153.912L152.628 18.5821H152.562L151.057 11.1672H148.356L151.3 22.8319L151.057 23.8943C150.902 24.4255 150.592 24.6247 150.127 24.6247C149.862 24.6247 149.552 24.5583 149.198 24.4919L148.932 26.5504C149.375 26.661 149.839 26.7274 150.437 26.7274Z" fill="#00466E"/>
</svg>
